<?xml version="1.0" encoding="UTF-8" standalone="no"?>
<!DOCTYPE svg PUBLIC "-//W3C//DTD SVG 1.1//EN" "http://www.w3.org/Graphics/SVG/1.1/DTD/svg11.dtd">
<svg version="1.1" xmlns="http://www.w3.org/2000/svg" xmlns:xlink="http://www.w3.org/1999/xlink" preserveAspectRatio="xMidYMid meet" viewBox="0 0 800 800" width="800" height="800"><defs><path d="M175 625L175 175L625 175L625 625L175 625ZM386.89 240.53L380.43 241.19L374.06 242.1L367.77 243.25L361.57 244.65L355.46 246.29L349.45 248.16L343.54 250.26L337.75 252.58L332.06 255.12L326.5 257.87L321.06 260.83L315.75 263.99L310.57 267.34L305.53 270.89L300.64 274.62L295.9 278.53L291.31 282.62L286.89 286.89L282.62 291.31L278.53 295.9L274.62 300.64L270.89 305.53L267.34 310.57L263.99 315.75L260.83 321.06L257.87 326.5L255.12 332.06L252.58 337.75L250.26 343.54L248.16 349.45L246.29 355.46L244.65 361.57L243.25 367.77L242.1 374.06L241.19 380.43L240.53 386.89L240.13 393.41L240 400L240.13 406.59L240.53 413.11L241.19 419.57L242.1 425.94L243.25 432.23L244.65 438.43L246.29 444.54L248.16 450.55L250.26 456.46L252.58 462.25L255.12 467.94L257.87 473.5L260.83 478.94L263.99 484.25L267.34 489.43L270.89 494.47L274.62 499.36L278.53 504.1L282.62 508.69L286.89 513.11L291.31 517.38L295.9 521.47L300.64 525.38L305.53 529.11L310.57 532.66L315.75 536.01L321.06 539.17L326.5 542.13L332.06 544.88L337.75 547.42L343.54 549.74L349.45 551.84L355.46 553.71L361.57 555.35L367.77 556.75L374.06 557.9L380.43 558.81L386.89 559.47L393.41 559.87L400 560L406.59 559.87L413.11 559.47L419.57 558.81L425.94 557.9L432.23 556.75L438.43 555.35L444.54 553.71L450.55 551.84L456.46 549.74L462.25 547.42L467.94 544.88L473.5 542.13L478.94 539.17L484.25 536.01L489.43 532.66L494.47 529.11L499.36 525.38L504.1 521.47L508.69 517.38L513.11 513.11L517.38 508.69L521.47 504.1L525.38 499.36L529.11 494.47L532.66 489.43L536.01 484.25L539.17 478.94L542.13 473.5L544.88 467.94L547.42 462.25L549.74 456.46L551.84 450.55L553.71 444.54L555.35 438.43L556.75 432.23L557.9 425.94L558.81 419.57L559.47 413.11L559.87 406.59L560 400L559.87 393.41L559.47 386.89L558.81 380.43L557.9 374.06L556.75 367.77L555.35 361.57L553.71 355.46L551.84 349.45L549.74 343.54L547.42 337.75L544.88 332.06L542.13 326.5L539.17 321.06L536.01 315.75L532.66 310.57L529.11 305.53L525.38 300.64L521.47 295.9L517.38 291.31L513.11 286.89L508.69 282.62L504.1 278.53L499.36 274.62L494.47 270.89L489.43 267.34L484.25 263.99L478.94 260.83L473.5 257.87L467.94 255.12L462.25 252.58L456.46 250.26L450.55 248.16L444.54 246.29L438.43 244.65L432.23 243.25L425.94 242.1L419.57 241.19L413.11 240.53L406.59 240.13L400 240L393.41 240.13L386.89 240.53ZM407.29 305.3L410.92 305.64L414.55 306.13L418.15 306.76L421.73 307.52L425.29 308.42L428.81 309.47L432.3 310.65L435.76 311.97L439.16 313.43L442.53 315.03L445.83 316.77L449.09 318.64L452.28 320.66L455.41 322.81L458.46 325.11L461.45 327.54L464.35 330.11L467.18 332.82L469.89 335.65L472.46 338.55L474.89 341.54L477.19 344.59L479.34 347.72L481.36 350.91L483.23 354.17L484.97 357.47L486.57 360.84L488.03 364.24L489.35 367.7L490.53 371.19L491.58 374.71L492.48 378.27L493.24 381.85L493.87 385.45L494.36 389.08L494.7 392.71L494.91 396.35L494.98 400L494.91 403.65L494.7 407.29L494.36 410.92L493.87 414.55L493.24 418.15L492.48 421.73L491.58 425.29L490.53 428.81L489.35 432.3L488.03 435.76L486.57 439.16L484.97 442.53L483.23 445.83L481.36 449.09L479.34 452.28L477.19 455.41L474.89 458.46L472.46 461.45L469.89 464.35L467.18 467.18L464.35 469.89L461.45 472.46L458.46 474.89L455.41 477.19L452.28 479.34L449.09 481.36L445.83 483.23L442.53 484.97L439.16 486.57L435.76 488.03L432.3 489.35L428.81 490.53L425.29 491.58L421.73 492.48L418.15 493.24L414.55 493.87L410.92 494.36L407.29 494.7L403.65 494.91L400 494.98L396.35 494.91L392.71 494.7L389.08 494.36L385.45 493.87L381.85 493.24L378.27 492.48L374.71 491.58L371.19 490.53L367.7 489.35L364.24 488.03L360.84 486.57L357.47 484.97L354.17 483.23L350.91 481.36L347.72 479.34L344.59 477.19L341.54 474.89L338.55 472.46L335.65 469.89L332.82 467.18L330.11 464.35L327.54 461.45L325.11 458.46L322.81 455.41L320.66 452.28L318.64 449.09L316.77 445.83L315.03 442.53L313.43 439.16L311.97 435.76L310.65 432.3L309.47 428.81L308.42 425.29L307.52 421.73L306.76 418.15L306.13 414.55L305.64 410.92L305.3 407.29L305.09 403.65L305.02 400L305.09 396.35L305.3 392.71L305.64 389.08L306.13 385.45L306.76 381.85L307.52 378.27L308.42 374.71L309.03 372.67L368.18 431.82L369.52 433.1L370.89 434.32L372.31 435.47L373.76 436.56L375.24 437.58L376.75 438.54L378.29 439.43L379.86 440.25L381.45 441.01L383.06 441.7L384.7 442.32L386.35 442.88L388.02 443.38L389.71 443.81L391.4 444.17L393.11 444.46L394.83 444.69L396.55 444.86L398.27 444.96L400 444.99L401.73 444.96L403.45 444.86L405.17 444.69L406.89 444.46L408.6 444.17L410.29 443.81L411.98 443.38L413.65 442.88L415.3 442.32L416.94 441.7L418.55 441.01L420.14 440.25L421.71 439.43L423.25 438.54L424.76 437.58L426.24 436.56L427.69 435.47L429.11 434.32L430.48 433.1L431.82 431.82L433.1 430.48L434.32 429.11L435.47 427.69L436.56 426.24L437.58 424.76L438.54 423.25L439.43 421.71L440.25 420.14L441.01 418.55L441.7 416.94L442.32 415.3L442.88 413.65L443.38 411.98L443.81 410.29L444.17 408.6L444.46 406.89L444.69 405.17L444.86 403.45L444.96 401.73L444.99 400L444.96 398.27L444.86 396.55L444.69 394.83L444.46 393.11L444.17 391.4L443.81 389.71L443.38 388.02L442.88 386.35L442.32 384.7L441.7 383.06L441.01 381.45L440.25 379.86L439.43 378.29L438.54 376.75L437.58 375.24L436.56 373.76L435.47 372.31L434.32 370.89L433.1 369.52L431.82 368.18L372.67 309.03L374.71 308.42L378.27 307.52L381.85 306.76L385.45 306.13L389.08 305.64L392.71 305.3L396.35 305.09L400 305.02L403.65 305.09L407.29 305.3Z" id="f6drE8Jkl"></path></defs><g><g><g><use xlink:href="#f6drE8Jkl" opacity="1" fill="#ffffff" fill-opacity="1"></use></g></g></g></svg>